<?xml version="1.0" standalone="no"?><!DOCTYPE svg PUBLIC "-//W3C//DTD SVG 1.1//EN" "http://www.w3.org/Graphics/SVG/1.1/DTD/svg11.dtd"><svg t="1544174540096" class="icon" style="" viewBox="0 0 1024 1024" version="1.1" xmlns="http://www.w3.org/2000/svg" p-id="3668" xmlns:xlink="http://www.w3.org/1999/xlink" width="48" height="48"><defs><style type="text/css"></style></defs><path d="M1024 455.111111l-227.555556 182.044445V512H341.333333V398.222222h455.111111V273.066667L1024 455.111111z m-227.555556-284.444444c0-50.289778-6.542222-56.888889-56.888888-56.888889H284.444444c-50.232889 0-56.888889 6.599111-56.888888 56.888889v568.888889c0 50.289778 6.599111 56.888889 56.888888 56.888888h455.111112c50.346667 0 56.888889-6.599111 56.888888-56.888888v-56.888889h113.777778v113.777777c0 71.623111-44.430222 113.777778-113.777778 113.777778H227.555556c-65.820444 0-113.777778-45.795556-113.777778-113.777778V113.777778c0-94.72 30.208-113.777778 113.777778-113.777778h568.888888c78.791111 0 113.777778 27.932444 113.777778 113.777778v113.777778h-113.777778V170.666667z" fill="" p-id="3669"></path></svg>